# xmcd
#
# Track frame offsets:
#        150
#        15572
#        29985
#        43950
#        56015
#        75662
#        94107
#        111937
#        128807
#        147285
#        158275
#
# Disc length: 2314 seconds
#
# Revision: 1
# Processed by: cddbd v1.5.1PL0 Copyright (c) Steve Scherf et al.
# Submitted via: ExactAudioCopy v0.95a5
#
DISCID=9009080b
DTITLE=Isabelle Antena - Jouez Le Cinq
DYEAR=1900
DGENRE=
TTITLE0=Le Sourire De Pablo
TTITLE1=Jouez Le Cinq
TTITLE2=Revolution Intemporelle
TTITLE3=Les Existentialistes
TTITLE4=Mafia
TTITLE5=Domine-Toi
TTITLE6=La Valse Des Ames Perdues
TTITLE7=Lady Jusqu' Au Bout
TTITLE8=DansTon Univers
TTITLE9=La Legende Des Siecles
TTITLE10=La Sonresa De Pablo
EXTD=
EXTT0=
EXTT1=
EXTT2=
EXTT3=
EXTT4=
EXTT5=
EXTT6=
EXTT7=
EXTT8=
EXTT9=
EXTT10=
PLAYORDER=
